Coordinates
version=1
nRows=12
nColumns=34
inDegrees=yes

Units are S.I. units (second, meters, Newtons, ...)
If the header above contains a line with 'inDegrees', this indicates whether rotational values are in degrees (yes) or radians (no).

endheader
time	pelvis_tilt	pelvis_list	pelvis_rotation	pelvis_tx	pelvis_ty	pelvis_tz	hip_flexion_r	hip_adduction_r	hip_rotation_r	knee_angle_r	ankle_angle_r	subtalar_angle_r	mtp_angle_r	hip_flexion_l	hip_adduction_l	hip_rotation_l	knee_angle_l	ankle_angle_l	subtalar_angle_l	mtp_angle_l	lumbar_extension	lumbar_bending	lumbar_rotation	arm_flex_r	arm_add_r	arm_rot_r	elbow_flex_r	pro_sup_r	arm_flex_l	arm_add_l	arm_rot_l	elbow_flex_l	pro_sup_l
      0.00000000	      0.64381759	      0.60013874	      2.24734152	      0.72622973	      1.14889328	     -0.10767670	     -4.00447501	     -5.87152315	     -8.21585258	      0.00000000	      0.09614951	    -15.88090964	      0.00000000	     -2.08731104	     -3.63586123	     -2.06557006	      2.79518878	      4.52182446	    -10.99985842	      0.00000000	     -8.14889638	      4.68077107	      2.28361192	      0.18086364	     -9.80994588	      1.14539880	     22.94352252	     80.07714368	    127.13546092	    -39.66544401	     34.17156908	     61.16317044	     69.83914726
      0.01666670	     -3.40871669	     -0.82721349	      1.83429415	      0.72923492	      1.13949769	     -0.10904558	      0.15515015	     -4.57874292	     -8.91734551	      0.00000000	      1.87926041	    -11.99042550	      0.00000000	      2.32721255	     -4.98201530	     -2.87913922	      1.99353012	      4.63236521	     -8.91836536	      0.00000000	     -3.82694920	      5.06694674	     -2.05198046	      1.38189727	     -9.63763875	     -3.87563149	     26.98587717	     80.78106753	    140.00204784	    -39.20243028	     44.10531247	     47.76149097	     70.95836665
      0.03333330	     -4.67962436	     -1.15789279	      1.25762851	      0.73471576	      1.13818177	     -0.11045391	      1.42363305	     -4.27695584	     -9.11954393	      0.00000000	      1.82656907	    -12.62767165	      0.00000000	      3.65817896	     -5.24274695	     -3.85114694	      2.05598739	      5.70012416	     -7.66107405	      0.00000000	     -1.53266354	      5.01302509	     -2.18999738	      0.88774647	     -9.15302102	    -10.12358581	     27.80329126	     81.40963539	    142.31718341	    -38.78137077	     44.44589717	     49.78007219	     71.62513128
      0.05000000	     -5.12063524	     -1.13169359	      0.93174283	      0.73451469	      1.13662107	     -0.10990088	      1.93761945	     -4.28918680	     -9.55755122	      0.00000000	      2.30794275	    -12.36374152	      0.00000000	      3.60787104	     -5.22282538	     -4.13704072	      1.21428189	      5.60112399	     -7.53875290	      0.00000000	     -0.55289897	      4.45428541	     -2.41316656	      0.53257759	     -8.33708346	    -10.63884346	     28.12864392	     81.55823618	    143.42144942	    -37.41447087	     44.10305218	     50.61404419	     71.71903807
      0.06666670	     -5.28133352	     -1.16186585	      0.63533390	      0.73437720	      1.13555344	     -0.10977630	      2.06998123	     -4.24060462	    -10.17346478	      0.00000000	      2.97462956	    -11.48897705	      0.00000000	      3.43497326	     -5.26565099	     -4.27678891	      0.79102548	      6.11611280	     -7.20164086	      0.00000000	     -0.20249516	      4.48447997	     -0.88477227	     -0.90665612	     -7.19274403	    -17.30512518	     29.44853182	     84.44447599	    144.11436624	    -35.74879547	     43.53680941	     48.90457165	     72.81375162
      0.08333330	     -5.60433656	     -1.14248154	      0.47483740	      0.73437200	      1.13462459	     -0.10956791	      2.36910241	     -4.26796105	    -10.80771181	      0.00000000	      2.75298149	    -11.52306985	      0.00000000	      3.61176991	     -5.21669710	     -4.27592129	      0.57536847	      6.26375336	     -7.24151832	      0.00000000	      0.32980496	      4.69504361	     -0.30880453	     -1.27857676	     -7.13836740	    -17.30344783	     29.04579283	     84.69658754	    144.89997685	    -35.52661921	     43.25187321	     49.20978031	     72.82644587
      0.10000000	     -6.07600248	     -1.14155109	      0.66060495	      0.73426202	      1.13347043	     -0.10991434	      2.78108682	     -4.29785201	    -11.63358831	      0.00000000	      2.82859010	    -11.31682290	      0.00000000	      4.17813347	     -5.19696250	     -4.09030846	      0.68710045	      6.60310976	     -7.47044307	      0.00000000	      1.19131908	      4.82051985	      0.41825784	     -1.44871320	     -7.12924628	    -17.32056800	     28.24694651	     85.81481058	    144.88282151	    -33.89885833	     43.81686962	     48.33007485	     72.90745279
      0.11666670	     -6.30457774	     -1.26436510	      0.74471847	      0.73414628	      1.13277269	     -0.11008470	      2.95524166	     -4.17435301	    -12.32604302	      0.00000000	      2.56479297	    -11.20678894	      0.00000000	      4.46225506	     -5.31412286	     -3.79583378	      0.80105770	      6.62856508	     -7.81212618	      0.00000000	      1.57046933	      5.12618649	      0.61119733	     -1.31599241	     -7.38963321	    -17.25593111	     27.70654617	     87.39058076	    145.57228130	    -32.48436437	     44.32062213	     45.75664038	     72.98644043
      0.13333330	     -6.47700659	     -1.35249761	      0.70352634	      0.73414658	      1.13239699	     -0.11012182	      3.14707676	     -4.06300196	    -12.60462452	      0.00000000	      2.44257444	    -11.19021540	      0.00000000	      4.59791519	     -5.41363461	     -3.77684759	      0.75164785	      6.42475862	     -7.80603196	      0.00000000	      1.60860596	      5.52855604	      0.46360502	     -1.14463941	     -7.39380100	    -17.18290791	     27.54892156	     87.78139099	    146.67186656	    -31.91367836	     43.76538535	     45.75912436	     72.94567931
      0.15000000	     -6.60042108	     -1.37167932	      0.82174736	      0.73416138	      1.13197377	     -0.11058045	      3.18477736	     -4.09362574	    -13.34614283	      0.00000000	      2.24353771	    -11.14610275	      0.00000000	      4.75139270	     -5.41313937	     -3.53524947	      0.81025279	      6.34115923	     -8.00607360	      0.00000000	      2.05110798	      5.58358476	      0.08580164	     -0.78945649	     -7.94435327	    -14.95366431	     26.76155707	     97.71014677	    146.67448038	    -29.23579176	     38.22429430	     44.30207812	     72.67090720
      0.16666670	     -6.69454215	     -1.48121155	      0.68352535	      0.73376544	      1.13407516	     -0.11050866	      3.25540050	     -3.98340064	    -13.90806793	      0.00000000	      1.65917589	    -11.09007593	      0.00000000	      4.94354711	     -5.55237235	     -3.71978173	      1.05037097	      6.21840366	     -8.24748874	      0.00000000	      2.11992042	      6.02519782	     -0.02183058	     -0.60611045	     -8.01547333	    -15.19820185	     26.70449221	     97.91922063	    147.71663156	    -28.94321083	     37.87808603	     44.05374310	     72.66613552
      0.18333330	     -6.39658819	     -1.44851526	      0.71546501	      0.73344129	      1.13417252	     -0.11050269	      2.87573080	     -4.02589518	    -14.45768128	      0.00000000	      1.49065672	    -11.06210934	      0.00000000	      4.53160395	     -5.52244535	     -3.72384041	      0.87666502	      5.88527000	     -8.47283892	      0.00000000	      1.67108955	      5.98030141	      0.03141506	     -0.80053874	     -7.26425183	    -20.83314036	     27.83830411	    110.52281530	    149.69407050	    -27.13758077	     37.36981496	     40.61911974	     75.10477052
